<?xml version="1.0" standalone="no"?>
<!DOCTYPE svg PUBLIC "-//W3C//DTD SVG 20010904//EN"
 "http://www.w3.org/TR/2001/REC-SVG-20010904/DTD/svg10.dtd">
<svg version="1.0" xmlns="http://www.w3.org/2000/svg"
 width="96.000000pt" height="96.000000pt" viewBox="0 0 96.000000 96.000000"
 preserveAspectRatio="xMidYMid meet">
<metadata>
Created by potrace 1.10, written by Peter Selinger 2001-2011
</metadata>
<g transform="translate(0.000000,96.000000) scale(0.050000,-0.050000)"
fill="#f7f7f7" stroke="none">
<path d="M681 1838 c-27 -11 -85 -49 -130 -85 -45 -37 -126 -92 -181 -123
-326 -185 -346 -450 -45 -603 169 -85 197 -125 183 -261 -13 -126 17 -436 57
-596 36 -145 220 -189 402 -96 75 38 67 122 -34 381 -90 228 -98 332 -22 313
28 -7 120 -15 205 -18 85 -3 208 -12 274 -20 263 -30 288 145 40 282 -70 39
-57 80 49 148 371 238 179 492 -302 399 -278 -53 -294 -47 -170 63 132 115
150 156 93 202 -50 41 -328 50 -419 14z m272 -70 c60 -16 49 -102 -20 -157
-143 -114 -28 -161 247 -101 123 27 321 39 263 16 -18 -7 0 -26 49 -54 44 -24
82 -64 90 -92 l14 -50 4 50 c4 37 7 41 14 14 14 -54 -39 -120 -153 -193 -144
-93 -146 -255 -3 -263 21 -1 23 -5 7 -11 -18 -8 -19 -21 -4 -49 24 -44 -53
-87 -114 -64 -21 8 -29 5 -20 -9 8 -13 -1 -17 -27 -11 -22 6 -36 17 -31 25 5
7 -54 5 -131 -5 -77 -10 -162 -12 -189 -5 l-49 12 71 103 c76 110 79 149 12
141 -70 -7 -50 36 67 149 114 110 133 153 78 174 -58 22 -75 12 -200 -118
-138 -144 -188 -163 -188 -72 0 65 -45 112 -90 95 -24 -9 -28 -30 -18 -92 19
-118 -15 -99 -68 37 -59 154 -88 178 -143 123 -46 -46 -50 -27 67 -287 67
-147 66 -150 -19 -76 -39 34 -78 62 -87 62 -36 0 -144 132 -165 201 -30 101
10 170 156 269 64 44 124 89 132 100 8 11 15 13 15 4 0 -9 32 8 71 38 101 77
268 121 362 96z m167 -419 c0 -6 -50 -60 -111 -120 -115 -111 -144 -203 -64
-196 52 4 43 -29 -34 -123 -156 -190 -162 -279 -43 -594 45 -118 47 -138 21
-164 -16 -16 -29 -39 -29 -51 0 -11 -31 -21 -70 -21 -40 0 -70 10 -70 23 0 13
-13 38 -28 55 -37 42 -52 128 -65 372 -6 110 -22 218 -36 240 -13 22 -21 72
-16 110 6 51 -12 116 -62 230 -84 191 -90 213 -61 223 12 5 50 -56 84 -134 73
-164 111 -174 120 -32 6 93 44 114 44 24 0 -129 90 -112 254 49 106 105 166
145 166 109z"/>
<path d="M1324 1769 c-61 -43 -59 -109 4 -109 83 0 151 73 103 110 -48 37 -52
37 -107 -1z"/>
<path d="M1615 1709 c-66 -36 -68 -56 -15 -109 57 -57 210 -56 241 1 56 106
-95 178 -226 108z"/>
<path d="M1691 1309 c-53 -54 -40 -109 26 -109 65 0 133 64 116 109 -15 40
-101 40 -142 0z"/>
<path d="M1545 1137 c-42 -42 -29 -95 25 -109 62 -15 114 24 106 80 -7 49 -92
68 -131 29z"/>
</g>
</svg>
