<?xml version="1.0" standalone="no"?>
<!DOCTYPE svg PUBLIC "-//W3C//DTD SVG 20010904//EN"
 "http://www.w3.org/TR/2001/REC-SVG-20010904/DTD/svg10.dtd">
<svg version="1.0" xmlns="http://www.w3.org/2000/svg"
 width="64.000000pt" height="64.000000pt" viewBox="0 0 64.000000 64.000000"
 preserveAspectRatio="xMidYMid meet">
<metadata>
Created by potrace 1.16, written by Peter Selinger 2001-2019
</metadata>
<g transform="translate(0.000000,64.000000) scale(0.100000,-0.100000)"
fill="#1c971c" stroke="none">
<path d="M279 413 c15 -30 21 -61 21 -108 l0 -66 -31 36 c-25 28 -38 35 -68
34 l-36 -1 30 -13 c17 -7 46 -34 66 -60 33 -43 35 -50 28 -88 -5 -23 -8 -61
-9 -84 0 -43 0 -43 36 -43 l37 0 -6 76 c-5 72 -4 79 21 110 18 23 36 34 53 34
19 0 29 9 43 38 l18 37 -24 -22 c-13 -13 -35 -23 -48 -23 -13 0 -37 -12 -52
-27 l-28 -27 0 66 c0 52 4 71 22 93 l21 27 -22 -7 c-18 -5 -31 0 -58 27 l-35
33 21 -42z"/>
</g>
</svg>
